# xmcd
#
# Track frame offsets:
#	150
#	15212
#	27825
#	48073
#	62139
#	77926
#	87827
#	111186
#	127825
#	142377
#	157750
#	188027
#
# Disc length: 2718 seconds
#
# Revision: 1
# Processed by: cddbd v1.5.2PL0 Copyright (c) Steve Scherf et al.
# Submitted via: audiograbber 1.83.01
#
DISCID=8d0a9c0c
DTITLE=Bintangs - Fire and Iron
DYEAR=1900
DGENRE=Lokaal
TTITLE0=Bintangs - Tremblin fever
TTITLE1=Bintangs - Fire and Iron
TTITLE2=Bintangs - Show me
TTITLE3=Bintangs - Lick my sweat
TTITLE4=Bintangs - Fairytale writers
TTITLE5=Bintangs - The riff
TTITLE6=Bintangs - Secrets of lies
TTITLE7=Bintangs - Heartburn Baby
TTITLE8=Bintangs - Whole lotta pain
TTITLE9=Bintangs - Charming Charlene
TTITLE10=Bintangs - Heavy street
TTITLE11=Bintangs - Outskirts of town
EXTD=
EXTT0=
EXTT1=
EXTT2=
EXTT3=
EXTT4=
EXTT5=
EXTT6=
EXTT7=
EXTT8=
EXTT9=
EXTT10=
EXTT11=
PLAYORDER=
